<svg width="434" height="418" viewBox="0 0 434 418" fill="none" xmlns="http://www.w3.org/2000/svg">
<path d="M426.157 79.0612C412.324 51.7939 384.707 37.0667 367.54 27.929C293.498 -11.538 192.586 -1.03934 125.51 35.803C59.3304 72.1593 1.60947 158.19 25.7925 251.656C50.0751 345.463 122.923 390.18 194.427 400.435C307.928 416.669 424.913 346.338 430.137 320.675C431.73 312.752 431.332 305.753 431.332 305.753C429.341 287.235 413.717 276.25 410.084 234.061C403.367 156.391 450.439 126.888 426.157 79.0612Z" fill="#E0ECFF"/>
<g clip-path="url(#clip0_36_2629)">
<path d="M178.025 164.698V188.878C178.025 212.542 196.636 231.737 219.587 231.737C242.537 231.737 261.148 250.932 261.148 274.596C261.148 276.716 259.436 278.435 257.323 278.435H147.253C112.827 278.435 84.9103 249.671 84.9103 214.204V162.578C84.9103 148.483 95.9858 137.023 109.688 137.023H151.021C165.979 137.023 178.025 149.4 178.025 164.698Z" fill="#5050EB"/>
<path d="M171.403 270.356H181.394V386.9H171.403V270.356Z" fill="#5050EB"/>
<path d="M223.126 387.072L178.995 383.175H174.942L129.897 387.072V390.166H223.126V387.072Z" fill="#5050EB"/>
<path d="M151.364 285.769L140.574 295.051L147.31 301.411L160.099 293.218L151.364 285.769Z" fill="white"/>
<path d="M147.31 302.099C147.424 302.099 147.539 302.041 147.653 301.984L160.384 293.791C160.555 293.676 160.669 293.447 160.727 293.275C160.727 293.046 160.669 292.874 160.498 292.702L151.82 285.31C151.592 285.081 151.192 285.081 150.907 285.31L140.117 294.535C139.946 294.65 139.889 294.822 139.889 295.051C139.889 295.223 139.946 295.452 140.117 295.567L146.854 301.927C146.968 302.041 147.139 302.099 147.31 302.099ZM158.9 293.103L147.367 300.494L141.544 295.051L151.307 286.686L158.9 293.103Z" fill="#0F2373"/>
<path d="M142 291.67C140.458 292.874 137.718 295.166 135.434 297.458C134.007 298.89 133.95 301.182 135.206 302.729C138.746 307.141 147.423 316.595 155.93 323.413C156.501 323.872 157.814 324.388 159.412 323.299C164.722 319.575 157.528 310.636 152.048 298.718H149.079C147.48 298.718 146.11 297.801 145.482 296.312L143.655 292.071C143.427 291.441 142.571 291.212 142 291.67Z" fill="#5050EB"/>
<path d="M157.586 324.617C158.271 324.617 159.07 324.388 159.869 323.872C164.322 320.72 161.068 314.532 156.958 306.74C155.645 304.219 154.103 301.411 152.733 298.432L152.562 298.03H149.193C147.88 298.03 146.738 297.286 146.225 296.082L144.398 291.842C144.169 291.327 143.77 290.926 143.199 290.811C142.685 290.696 142.114 290.811 141.657 291.155C140.173 292.358 137.319 294.65 135.035 296.999C133.379 298.661 133.265 301.354 134.749 303.187C138.46 307.828 147.081 317.168 155.588 323.986C156.044 324.33 156.786 324.617 157.586 324.617ZM151.648 299.406C152.961 302.271 154.446 304.964 155.702 307.37C159.698 314.876 162.553 320.262 159.07 322.726C157.643 323.7 156.615 323.012 156.444 322.84C147.994 316.079 139.488 306.797 135.834 302.271C134.807 300.953 134.864 299.062 136.005 297.916C138.232 295.624 141.029 293.332 142.457 292.186C142.571 292.071 142.742 292.071 142.799 292.129C142.856 292.129 143.028 292.186 143.085 292.358L144.912 296.598C145.654 298.317 147.309 299.406 149.136 299.406H151.648Z" fill="#0F2373"/>
<path d="M135.834 297.114C135.834 297.114 135.606 297.343 135.492 297.458C134.064 298.89 134.007 301.182 135.263 302.729C138.803 307.141 147.481 316.595 155.987 323.414C156.558 323.872 157.871 324.388 159.47 323.299C159.926 322.955 160.611 322.153 160.611 322.153L160.04 321.637C151.762 314.418 143.998 306.568 136.805 298.202L135.834 297.114Z" fill="white"/>
<path d="M157.586 324.617C158.271 324.617 159.07 324.388 159.869 323.872C160.383 323.471 161.068 322.726 161.125 322.611C161.354 322.325 161.354 321.924 161.068 321.637L160.497 321.122C152.276 313.959 144.455 306.052 137.376 297.744L136.405 296.598C136.291 296.426 136.12 296.369 135.891 296.369C135.663 296.369 135.492 296.426 135.378 296.598C135.378 296.598 135.149 296.827 135.035 296.942C133.379 298.604 133.265 301.297 134.75 303.13C138.46 307.771 147.081 317.111 155.588 323.929C156.044 324.33 156.786 324.617 157.586 324.617ZM159.584 322.268C159.413 322.439 159.184 322.669 159.013 322.783C157.586 323.757 156.558 323.07 156.387 322.898C147.937 316.137 139.431 306.854 135.777 302.328C134.807 301.067 134.807 299.348 135.777 298.145L136.234 298.718C143.427 307.026 151.249 314.991 159.584 322.268Z" fill="#0F2373"/>
<path d="M149.308 306.511L154.903 306.281C155.302 306.281 155.588 305.938 155.588 305.594C155.588 305.193 155.245 304.906 154.903 304.906L149.308 305.136C148.908 305.136 148.623 305.479 148.623 305.823C148.623 306.224 148.908 306.511 149.308 306.511Z" fill="#0F2373"/>
<path d="M151.82 310.521H151.877L157.3 309.891C157.7 309.834 157.928 309.49 157.871 309.146C157.814 308.745 157.472 308.516 157.129 308.573L151.705 309.203C151.306 309.261 151.077 309.605 151.135 309.948C151.135 310.292 151.477 310.521 151.82 310.521Z" fill="#0F2373"/>
<path d="M270.168 232.081C270.168 232.081 283.299 237.639 279.588 249.843C277.362 257.177 274.564 262.277 232.774 270.47C190.984 278.664 161.354 295.624 161.354 295.624C161.354 295.624 150.393 293.389 149.365 285.941C149.194 284.737 149.765 283.477 150.792 282.789L158.385 277.289L151.192 273.45C142.971 269.038 136.52 261.818 133.551 252.994C130.925 245.087 129.612 231.565 129.612 231.565L270.168 232.081Z" fill="#0F2373"/>
<path d="M236.657 372.346L238.198 385.181L247.504 383.118L246.305 371.658L236.657 372.346Z" fill="white"/>
<path d="M238.198 385.868C238.255 385.868 238.312 385.868 238.369 385.868L247.732 383.748C248.075 383.691 248.303 383.347 248.246 383.003L247.047 371.544C246.99 371.2 246.705 370.913 246.305 370.913L236.657 371.601C236.485 371.601 236.314 371.716 236.2 371.83C236.086 372.002 236.029 372.174 236.029 372.346L237.57 385.238C237.57 385.41 237.684 385.582 237.856 385.696C237.913 385.868 238.027 385.868 238.198 385.868ZM246.762 382.545L238.769 384.321L237.399 372.919L245.677 372.346L246.762 382.545Z" fill="#0F2373"/>
<path d="M235.001 377.102C234.487 379.05 233.459 384.55 233.06 387.874C232.774 389.936 234.144 391.885 236.142 392.343C241.851 393.775 255.439 393.432 266.686 393.661C267.485 393.661 268.855 393.26 269.483 391.369C271.538 384.952 259.321 383.233 247.332 376.873C247.332 376.873 246.647 377.446 245.619 378.019C243.907 378.935 241.052 378.878 239.339 377.904L236.599 376.357C236.028 376.07 235.172 376.414 235.001 377.102Z" fill="#5050EB"/>
<path d="M266.8 394.406C267.999 394.406 269.541 393.718 270.169 391.655C271.767 386.613 265.887 384.207 258.465 381.17C255.154 379.852 251.443 378.305 247.732 376.357L247.332 376.128L246.99 376.414C246.99 376.414 246.305 376.987 245.391 377.503C243.907 378.305 241.338 378.248 239.797 377.388L237.056 375.841C236.542 375.555 235.971 375.497 235.458 375.727C234.944 375.956 234.544 376.414 234.43 376.93C233.916 378.935 232.889 384.493 232.432 387.759C232.146 390.166 233.688 392.4 236.086 393.031C240.425 394.119 248.874 394.177 257.837 394.234C260.806 394.234 263.889 394.291 266.8 394.348C266.743 394.406 266.743 394.406 266.8 394.406ZM247.447 377.789C251.1 379.68 254.697 381.17 257.951 382.488C265.716 385.639 270.054 387.587 268.913 391.254C268.342 392.973 267.029 393.088 266.8 393.031C263.889 392.973 260.806 392.916 257.837 392.916C249.331 392.859 240.539 392.744 236.371 391.713C234.658 391.312 233.574 389.707 233.802 387.988C234.202 384.837 235.229 379.279 235.743 377.331C235.8 377.159 235.914 377.044 236.029 377.044C236.086 376.987 236.257 376.987 236.428 377.044L239.169 378.592C241.11 379.68 244.192 379.737 246.076 378.706C246.59 378.362 247.104 378.019 247.447 377.789Z" fill="#0F2373"/>
<path d="M232.718 389.363C232.718 389.421 232.718 389.478 232.718 389.478C232.433 391.541 234.431 392.801 236.372 393.603C242.138 396.124 265.431 394.062 265.431 394.062C265.431 394.062 268.571 394.119 269.37 392.228C269.485 391.942 269.542 391.541 269.599 391.197C269.656 390.853 269.599 390.452 269.485 390.108L269.256 389.249C266.059 390.509 251.786 391.483 241.396 390.166C237.057 389.65 234.545 387.759 233.061 387.014C233.175 387.071 232.947 388.16 232.718 389.363Z" fill="white"/>
<path d="M248.303 395.552C256.182 395.552 264.631 394.807 265.431 394.749C265.83 394.749 269.027 394.635 269.998 392.515C270.112 392.228 270.226 391.827 270.283 391.254C270.34 390.796 270.283 390.395 270.169 389.936L269.941 389.077C269.884 388.905 269.769 388.733 269.598 388.619C269.427 388.504 269.199 388.504 269.027 388.619C265.944 389.879 251.786 390.796 241.51 389.535C238.141 389.134 235.858 387.816 234.373 387.014C234.031 386.785 233.688 386.613 233.403 386.499C233.232 386.384 233.003 386.384 232.775 386.499C232.604 386.613 232.432 386.785 232.432 387.014C232.432 387.014 232.204 388.16 232.033 389.306C232.033 389.363 232.033 389.421 232.033 389.478C231.69 392.056 234.202 393.489 236.086 394.348C238.37 395.265 243.222 395.552 248.303 395.552ZM265.431 393.374H265.373C265.145 393.374 242.138 395.437 236.6 392.973C234.202 391.885 233.174 390.853 233.346 389.535V389.478C233.46 388.962 233.517 388.504 233.574 388.103C233.631 388.103 233.631 388.16 233.688 388.16C235.287 389.077 237.628 390.395 241.338 390.853C251.329 392.114 264.46 391.312 268.799 390.108L268.856 390.223C268.913 390.509 268.97 390.796 268.913 391.082C268.856 391.598 268.799 391.827 268.742 391.885C268.228 393.145 266.23 393.374 265.431 393.374Z" fill="#0F2373"/>
<path d="M248.703 382.946C248.874 382.946 248.988 382.889 249.102 382.774L252.47 380.081C252.756 379.852 252.813 379.394 252.585 379.107C252.356 378.821 251.9 378.763 251.614 378.992L248.246 381.685C247.96 381.915 247.903 382.373 248.132 382.66C248.246 382.831 248.474 382.946 248.703 382.946Z" fill="#0F2373"/>
<path d="M253.27 384.722C253.441 384.722 253.556 384.665 253.67 384.551L256.638 382.259C256.924 382.029 256.981 381.571 256.753 381.285C256.524 380.998 256.068 380.941 255.782 381.17L252.813 383.462C252.528 383.691 252.471 384.149 252.699 384.436C252.87 384.608 253.042 384.722 253.27 384.722Z" fill="#0F2373"/>
<path d="M212.621 266.975C212.621 266.975 225.809 269.668 232.774 278.263C239.739 286.8 247.104 310.922 250.187 371.945C250.187 371.945 238.597 375.44 233.916 372.747C229.291 370.054 224.21 308.229 213.763 299.635C203.315 291.097 151.82 278.664 143.313 267.777C134.807 256.891 155.702 256.891 155.702 256.891L212.621 266.975Z" fill="#0F2373"/>
<path d="M161.526 275.742C161.697 275.742 161.868 275.684 161.982 275.57C181.964 258.323 199.377 252.65 207.94 250.76C208.283 250.702 208.568 250.301 208.454 249.957C208.397 249.614 207.997 249.327 207.655 249.442C198.92 251.333 181.336 257.062 161.069 274.538C160.783 274.767 160.726 275.226 161.012 275.512C161.126 275.627 161.354 275.742 161.526 275.742Z" fill="#CADDFF"/>
<path d="M254.011 189.737C255.553 189.222 256.067 187.789 254.297 187.56C252.927 187.331 248.074 188.19 247.275 188.305C247.104 188.305 246.932 188.133 247.104 188.018C252.128 185.784 254.297 184.18 255.267 183.148C255.895 182.403 255.781 181.429 254.925 180.914C248.988 177.189 237.227 186.185 235.628 187.102C234.315 187.789 221.013 187.675 221.013 187.675C214.676 187.331 207.654 188.362 202.859 189.394C193.096 191.571 199.833 202.458 201.488 205.208C201.488 205.208 228.207 194.608 238.997 192.201C240.424 191.915 241.851 191.743 243.278 191.743C244.934 191.686 248.474 191.571 254.011 189.737Z" fill="white"/>
<path d="M199.491 190.139C198.806 190.597 198.235 191.227 197.835 191.857C195.323 196.04 199.262 202.687 200.69 205.151L200.861 205.437C201.032 205.724 201.432 205.781 201.717 205.666C202.003 205.552 228.493 195.066 239.111 192.717C240.425 192.43 241.795 192.259 243.222 192.259C244.592 192.259 248.303 192.201 254.183 190.196C255.325 189.795 256.067 188.993 256.01 188.248C255.953 187.56 255.382 187.102 254.412 186.987C253.555 186.873 251.786 187.044 249.844 187.331C252.756 185.898 254.754 184.581 255.782 183.435C256.638 182.461 256.467 181.143 255.325 180.455C249.787 176.96 240.025 183.435 236.371 185.898C235.857 186.242 235.458 186.529 235.286 186.586C234.43 186.987 227.408 187.102 221.071 187.044C213.592 186.586 205.771 188.133 202.745 188.763C201.432 189.107 200.347 189.566 199.491 190.139ZM201.831 204.463C200.461 202.114 196.922 195.868 199.091 192.316C199.833 191.113 201.089 190.31 203.03 189.909C205.999 189.279 213.592 187.789 220.957 188.19C225.067 188.248 234.715 188.248 236.029 187.503C236.257 187.388 236.657 187.102 237.227 186.758C240.31 184.695 249.787 178.392 254.526 181.372C255.097 181.716 255.211 182.346 254.754 182.862C253.955 183.778 251.9 185.268 246.876 187.56C246.533 187.732 246.305 188.076 246.419 188.362C246.533 188.706 246.933 188.935 247.39 188.821C247.504 188.821 247.732 188.763 247.96 188.706C249.216 188.534 253.099 187.904 254.183 188.076C254.355 188.076 254.754 188.19 254.754 188.42C254.754 188.649 254.469 188.993 253.841 189.222C248.246 191.113 244.706 191.17 243.393 191.17C241.795 191.17 240.31 191.342 238.883 191.686C228.892 193.863 205.942 202.801 201.831 204.463Z" fill="#1E1E50"/>
<path d="M100.554 162.063C104.493 153.353 119.736 149.973 119.736 149.973L136.121 149.342C140.802 148.999 146.283 149.228 152.277 150.316C160.213 151.749 167.406 156.104 172.487 162.406C174.771 165.271 176.826 167.735 176.998 167.792C183.677 177.189 184.99 181.888 189.843 185.383C197.893 191.227 211.994 186.471 211.994 186.471C216.676 185.784 218.388 189.279 219.245 191.227C220.272 193.576 219.302 196.384 218.388 198.218C217.817 199.421 216.79 200.395 215.591 200.853C209.539 203.317 188.987 210.995 179.567 205.666C171.688 201.197 166.436 191.858 162.211 187.274C161.812 186.815 161.012 187.159 161.069 187.789C161.983 198.046 170.375 210.25 173.001 213.803C173.458 214.433 174.143 214.834 174.942 214.949L193.554 217.069C193.782 217.069 194.068 217.183 194.353 217.355C195.552 217.985 196.351 219.246 196.523 220.621C196.808 222.798 196.637 226.924 195.952 228.242L195.324 229.502C194.81 230.534 193.782 231.164 192.64 231.164C182.764 231.336 140.974 231.909 129.156 230.82C119.679 229.961 110.601 225.721 104.721 210.25C102.266 204.119 94.4448 175.47 100.554 162.063Z" fill="white"/>
<path d="M157.643 232.195C172.43 232.195 187.844 231.966 192.583 231.909C193.953 231.909 195.209 231.107 195.837 229.846L196.465 228.585C197.264 227.038 197.378 222.684 197.093 220.564C196.865 218.959 195.894 217.527 194.524 216.782C194.124 216.553 193.782 216.438 193.439 216.438L174.885 214.318C174.314 214.261 173.8 213.917 173.4 213.459C170.888 210.021 162.553 197.988 161.64 187.904C162.839 189.164 164.095 190.883 165.465 192.717C169.004 197.358 173.343 203.088 179.052 206.354C181.507 207.729 184.647 208.302 188.073 208.302C198.292 208.302 211.08 203.489 215.704 201.598C217.075 201.025 218.216 199.994 218.901 198.619C219.929 196.556 220.843 193.576 219.758 191.055C219.016 189.394 217.132 185.096 211.765 185.898L211.651 185.956C211.537 186.013 197.778 190.54 190.128 184.982C187.216 182.862 185.561 180.226 183.106 176.215C181.679 173.923 179.909 171.001 177.454 167.563L177.34 167.391H177.225C176.997 167.162 176.084 166.131 172.944 162.177C167.691 155.645 160.384 151.29 152.334 149.858C146.739 148.884 141.144 148.54 136.006 148.884L119.564 149.514C118.936 149.629 103.921 153.067 99.925 161.948C93.4738 176.158 102.152 205.838 103.978 210.708C109.117 224.116 116.824 230.591 128.984 231.737C134.351 232.081 145.826 232.195 157.643 232.195ZM161.64 186.414C161.468 186.414 161.297 186.471 161.069 186.529C160.555 186.758 160.213 187.274 160.27 187.904C161.183 198.332 169.69 210.708 172.316 214.261C172.887 215.063 173.743 215.579 174.713 215.636L193.325 217.756C193.439 217.756 193.61 217.813 193.896 217.928C194.866 218.444 195.551 219.475 195.723 220.678C196.008 222.798 195.837 226.752 195.209 227.898L194.581 229.158C194.181 229.961 193.382 230.476 192.526 230.476C184.076 230.591 141.144 231.278 129.098 230.132C121.277 229.445 111.514 226.465 105.234 209.964C102.665 203.145 95.3007 175.126 101.124 162.234C104.778 154.213 118.765 150.832 119.792 150.546L136.12 149.915C141.144 149.572 146.625 149.858 152.106 150.832C159.813 152.207 166.835 156.39 171.859 162.693C174.999 166.589 175.969 167.735 176.369 168.079C178.767 171.459 180.537 174.324 181.907 176.616C184.419 180.742 186.132 183.492 189.272 185.784C197.321 191.628 210.795 187.388 211.994 186.987C215.762 186.471 217.36 188.878 218.445 191.342C219.358 193.404 218.502 195.983 217.588 197.759C217.075 198.848 216.218 199.65 215.134 200.108C209.139 202.572 188.872 210.135 179.737 204.979C174.257 201.885 169.975 196.212 166.55 191.686C165.122 189.852 163.809 188.076 162.553 186.758C162.382 186.586 162.039 186.414 161.64 186.414Z" fill="#1E1E50"/>
<path d="M188.815 224.403C189.157 223.6 189.728 222.97 190.47 222.626C191.041 222.397 191.555 222.053 192.069 221.71L199.091 217.183C200.404 216.381 202.516 217.813 203.944 218.157C208.34 219.188 217.531 221.824 217.074 224.976C216.561 228.413 208.796 227.439 205.999 226.981C205.371 226.866 199.947 229.388 198.177 229.674C195.723 230.075 195.095 229.502 193.896 228.929C193.325 228.7 192.697 228.585 192.069 228.643C191.041 228.7 190.071 228.356 189.386 227.611C188.643 226.809 188.415 225.606 188.815 224.574V224.403Z" fill="white"/>
<path d="M196.75 230.591C197.207 230.591 197.664 230.533 198.292 230.476C199.262 230.304 201.146 229.559 202.973 228.872C204.172 228.413 205.599 227.84 205.999 227.783C208.968 228.242 214.277 228.815 216.618 227.096C217.303 226.58 217.703 225.95 217.817 225.147C218.216 222.34 213.649 219.819 204.172 217.527C203.772 217.412 203.316 217.24 202.802 217.068C201.489 216.553 200.004 215.923 198.748 216.667L191.726 221.194C191.155 221.538 190.699 221.824 190.242 222.053C189.329 222.454 188.643 223.199 188.244 224.173L188.13 224.46C187.616 225.72 187.901 227.21 188.815 228.242C189.671 229.101 190.813 229.559 192.069 229.502C192.64 229.445 193.154 229.502 193.61 229.731C193.782 229.789 193.953 229.903 194.124 229.961C194.866 230.247 195.551 230.591 196.75 230.591ZM205.942 226.351C205.485 226.351 204.686 226.637 202.402 227.554C200.804 228.184 198.863 228.929 198.006 229.101C196.179 229.388 195.551 229.101 194.638 228.7C194.467 228.585 194.238 228.528 194.067 228.413C193.439 228.127 192.697 228.012 191.898 228.07C191.041 228.127 190.299 227.84 189.728 227.268C189.157 226.637 188.986 225.72 189.271 224.918L189.386 224.632C189.671 224.002 190.128 223.486 190.699 223.199C191.213 222.97 191.726 222.684 192.354 222.283L199.376 217.756C200.004 217.412 201.146 217.871 202.174 218.272C202.688 218.501 203.202 218.673 203.715 218.787C211.651 220.678 216.561 223.027 216.332 224.861C216.275 225.262 216.047 225.606 215.704 225.892C214.277 226.924 210.68 227.096 206.056 226.351C206.056 226.408 205.999 226.351 205.942 226.351Z" fill="#1E1E50"/>
<path d="M166.892 214.949C167.234 214.949 167.52 214.719 167.577 214.376C167.634 213.975 167.348 213.631 167.006 213.631C165.864 213.459 164.608 213.344 163.124 213.172C150.564 211.912 127.157 209.563 119.107 184.924C118.993 184.581 118.593 184.351 118.251 184.466C117.908 184.581 117.68 184.982 117.794 185.326C126.129 210.823 150.107 213.23 163.009 214.547C164.494 214.719 165.75 214.834 166.834 214.949H166.892Z" fill="#1E1E50"/>
<path d="M122.876 130.262L123.276 154.155C123.276 155.187 123.961 156.046 124.931 156.333L126.016 156.619C129.27 157.536 132.753 157.364 135.893 156.046C136.863 155.645 137.434 154.614 137.263 153.525L134.18 136.049L122.876 130.262Z" fill="white"/>
<path d="M130.126 157.88C132.181 157.88 134.237 157.479 136.121 156.677C137.377 156.161 138.176 154.786 137.89 153.411L134.807 135.935C134.75 135.705 134.636 135.534 134.465 135.419L123.161 129.575C122.933 129.46 122.704 129.46 122.476 129.575C122.248 129.689 122.133 129.918 122.133 130.148L122.533 154.041C122.533 155.359 123.389 156.505 124.702 156.848L125.787 157.135C127.214 157.651 128.642 157.88 130.126 157.88ZM133.551 136.508L136.577 153.64C136.691 154.385 136.292 155.129 135.607 155.359C132.638 156.562 129.27 156.791 126.187 155.874L125.102 155.588C124.417 155.416 123.96 154.786 123.96 154.098L123.618 131.351L133.551 136.508Z" fill="#1E1E50"/>
<path d="M137.262 115.365C145.712 118.631 144.17 124.189 144.17 124.189C144.056 125.736 143.771 129.288 144.056 129.918C144.456 130.663 145.769 131.981 145.826 132.44C145.883 132.898 145.141 133.872 143.657 134.159C143.657 134.159 143.029 141.55 141.088 142.753C139.146 143.956 131.782 141.493 131.782 141.493L130.526 140.977C126.529 139.315 124.132 135.877 122.99 131.695C122.99 131.637 117.909 107.859 137.262 115.365Z" fill="white"/>
<path d="M139.318 143.727C140.174 143.727 140.916 143.613 141.373 143.326C143.314 142.123 144.056 136.622 144.228 134.674C145.712 134.216 146.511 133.127 146.454 132.325C146.397 131.924 146.055 131.465 145.427 130.663C145.141 130.262 144.741 129.804 144.627 129.517C144.513 129.231 144.456 128.085 144.799 124.246C144.97 123.501 145.826 117.943 137.434 114.677C132.01 112.557 127.843 112.672 125.159 115.021C119.736 119.662 122.191 131.294 122.305 131.809C123.561 136.565 126.301 139.946 130.24 141.607L131.496 142.123H131.554C132.524 142.467 136.578 143.727 139.318 143.727ZM145.141 132.497C145.027 132.726 144.57 133.242 143.543 133.471C143.257 133.528 143.029 133.757 143.029 134.101C142.743 137.023 141.887 141.493 140.745 142.18C139.603 142.868 134.979 141.836 132.01 140.862L130.811 140.347C127.272 138.857 124.817 135.82 123.675 131.523C123.675 131.465 121.334 120.235 126.13 116.11C128.414 114.161 132.124 114.104 137.034 115.995C144.799 119.032 143.543 123.902 143.543 123.959C143.543 124.017 143.543 124.017 143.543 124.074C143.2 127.97 143.2 129.575 143.543 130.148C143.771 130.549 144.113 131.007 144.513 131.465C144.684 131.809 145.027 132.268 145.141 132.497Z" fill="#1E1E50"/>
<path d="M134.522 111.297C136.749 111.87 138.918 113.302 140.06 113.474C141.944 113.703 142.743 111.812 145.084 112.729C147.139 113.531 148.795 114.792 149.08 116.797C149.137 117.141 149.137 117.485 149.08 117.886C148.566 122.928 145.426 123.959 144.17 124.189C144.17 124.189 136.749 124.189 135.321 124.532C133.951 124.819 131.953 126.137 131.268 129.174C131.154 129.575 130.868 129.861 130.469 129.861C130.012 129.918 129.612 129.575 129.498 129.116C129.27 127.684 128.642 124.762 127.158 124.647C125.445 124.532 123.275 127.856 125.445 130.033C126.13 130.721 125.902 131.867 124.988 132.21C124.246 132.497 123.332 132.497 122.362 131.695C122.362 131.695 118.08 123.902 120.25 117.427C122.476 110.838 131.553 110.552 134.522 111.297Z" fill="#1E1E50"/>
<path d="M146.055 133.528C146.226 133.528 146.397 133.471 146.511 133.356C147.254 132.669 147.768 131.293 147.825 129.746C147.882 128.715 147.767 127.684 147.482 126.882C146.968 125.564 146.226 125.335 145.769 125.335C144.456 125.22 143.371 126.939 143.143 129.345C143.086 129.746 143.371 130.033 143.771 130.09C144.114 130.148 144.456 129.861 144.513 129.46C144.627 127.684 145.37 126.71 145.655 126.71C145.769 126.71 145.998 126.882 146.169 127.397C146.397 127.97 146.511 128.83 146.454 129.689C146.34 131.007 145.941 131.981 145.541 132.382C145.255 132.669 145.255 133.07 145.541 133.356C145.712 133.414 145.883 133.528 146.055 133.528Z" fill="#1E1E50"/>
<path d="M140.288 132.955C141.088 132.955 141.83 132.497 142.401 131.695C142.914 130.95 143.257 129.918 143.314 128.83C143.485 126.423 142.344 124.475 140.688 124.36C139.089 124.246 137.662 126.022 137.548 128.429C137.491 129.517 137.662 130.549 138.119 131.351C138.576 132.268 139.318 132.783 140.174 132.841C140.231 132.955 140.288 132.955 140.288 132.955ZM140.574 125.793C140.631 125.793 140.631 125.793 140.574 125.793C141.316 125.85 142.058 127.053 141.944 128.772C141.887 129.575 141.658 130.377 141.259 130.892C140.973 131.351 140.574 131.58 140.231 131.523C139.889 131.523 139.546 131.236 139.318 130.721C139.032 130.148 138.861 129.345 138.918 128.543C139.032 126.939 139.889 125.793 140.574 125.793Z" fill="#1E1E50"/>
<path d="M138.519 127.684C138.861 127.684 139.147 127.397 139.204 127.053C139.261 126.652 138.975 126.366 138.576 126.309L130.469 125.449C130.069 125.392 129.784 125.678 129.727 126.079C129.67 126.48 129.955 126.767 130.355 126.824L138.461 127.684C138.519 127.684 138.519 127.684 138.519 127.684Z" fill="#1E1E50"/>
<path d="M281.245 232.023H199.32C196.808 232.023 194.753 229.961 194.753 227.44V227.153H285.755V227.497C285.755 230.018 283.757 232.023 281.245 232.023Z" fill="#5050EB"/>
<path d="M285.754 227.21H233.688L250.244 178.335C251.215 176.788 252.985 175.871 254.811 175.871H298.828C300.826 175.871 302.139 177.82 301.454 179.539C301.169 180.226 300.94 180.914 300.712 181.601L285.754 227.21Z" fill="#5050EB"/>
<path d="M266.458 200.911C265.83 202.973 266.8 205.093 268.57 205.609C270.34 206.125 272.338 204.921 272.909 202.859C273.537 200.796 272.566 198.676 270.797 198.16C269.027 197.587 267.086 198.791 266.458 200.911Z" fill="white"/>
<path d="M243.793 227.497H272.509C272.909 227.497 273.194 227.21 273.194 226.809C273.194 226.408 272.909 226.122 272.509 226.122H243.793C243.393 226.122 243.108 226.408 243.108 226.809C243.108 227.153 243.393 227.497 243.793 227.497Z" fill="#CADDFF"/>
<path d="M282.044 227.497H286.211C286.611 227.497 286.896 227.21 286.896 226.809C286.896 226.408 286.611 226.122 286.211 226.122H282.044C281.644 226.122 281.359 226.408 281.359 226.809C281.359 227.153 281.644 227.497 282.044 227.497Z" fill="#CADDFF"/>
<path d="M343.815 390.166L311.902 257.406L280.045 390.166H272.395L307.449 243.254L316.412 243.196L351.408 390.166H343.815Z" fill="white"/>
<path d="M73.6065 232.023H361.285V243.311H73.6065V232.023Z" fill="white"/>
<path d="M145.198 390.166L113.341 257.406L81.4847 390.166H73.8345L108.831 243.196H117.851L152.848 390.166H145.198Z" fill="white"/>
<path d="M147.825 241.649C148.224 241.649 148.51 241.363 148.51 240.962V234.029C148.51 233.628 148.224 233.341 147.825 233.341C147.425 233.341 147.14 233.628 147.14 234.029V240.962C147.14 241.363 147.482 241.649 147.825 241.649Z" fill="#CADDFF"/>
<path d="M246.757 120.306H213.588V111.697C213.588 107.752 216.671 104.523 220.439 104.523H239.393C243.446 104.523 246.7 107.931 246.7 112.175V120.306H246.757Z" fill="#99B9FF"/>
<path d="M241.448 109.545H218.612V94.5395C218.612 88.0232 223.636 82.7623 229.859 82.7623C236.31 82.7623 241.506 88.2025 241.506 94.958V109.545H241.448Z" fill="#99B9FF"/>
<path d="M230.372 101.534H228.603L228.66 4.52051L230.544 4.68113L230.372 101.534Z" fill="#99B9FF"/>
<path d="M44.4284 318.929C44.3831 318.996 44.3378 319.063 44.2925 319.13C44.0898 319.285 43.7987 319.283 43.6434 319.079C33.4795 306.383 27.0896 289.114 23.4622 276.858C19.5847 263.599 18.06 253.215 18.0384 253.102C17.9953 252.877 18.1764 252.609 18.4115 252.622C18.6358 252.579 18.9032 252.761 18.8902 252.997C18.9657 253.391 25.0236 294.41 44.2969 318.546C44.4866 318.626 44.4629 318.806 44.4284 318.929Z" fill="#5050EB"/>
<path d="M42.5151 324.721C42.4698 324.788 42.4806 324.844 42.4245 324.855C42.2218 325.011 41.9867 324.997 41.7861 324.861C25.2647 307.199 16.4248 271.38 16.2933 270.997C16.2502 270.772 16.3752 270.515 16.5995 270.472C16.8238 270.429 17.0804 270.554 17.1236 270.78C17.1883 271.117 25.9958 306.767 42.3619 324.225C42.5625 324.362 42.5388 324.542 42.5151 324.721Z" fill="#5050EB"/>
<path d="M46.1919 328.742C46.1229 328.989 45.931 329.201 45.739 329.412C45.3444 329.78 44.8613 329.989 44.3351 329.973C43.8089 329.957 43.3065 329.762 42.9398 329.365C42.5732 328.969 42.364 328.484 42.3791 327.956C42.3985 326.844 43.2784 325.975 44.32 325.951C44.8462 325.966 45.3487 326.162 45.7153 326.558C46.0819 326.955 46.2911 327.44 46.276 327.968C46.3407 328.305 46.2717 328.552 46.1919 328.742ZM43.3108 327.661C43.2763 327.784 43.2418 327.907 43.218 328.087C43.2159 328.379 43.3259 328.65 43.5372 328.843C43.7485 329.035 44.0052 329.161 44.2963 329.164C44.5874 329.166 44.857 329.056 45.0489 328.845C45.2409 328.633 45.366 328.375 45.3681 328.083C45.3703 327.791 45.2603 327.521 45.0489 327.328C44.8376 327.135 44.581 327.009 44.2898 327.007C43.8758 326.969 43.4596 327.224 43.3108 327.661Z" fill="#5050EB"/>
<path d="M21.4628 247.312C21.4283 247.435 21.327 247.513 21.2256 247.591L14.7473 249.882C14.5791 249.915 14.4001 249.89 14.3225 249.789C14.1888 249.698 14.1564 249.529 14.1802 249.349L15.7738 241.285C15.7975 241.105 15.9442 240.96 16.1124 240.928C16.2806 240.896 16.4596 240.92 16.548 241.078L21.4779 246.784C21.465 247.02 21.4866 247.132 21.4628 247.312ZM15.1247 248.818L20.2897 246.953L16.3928 242.391L15.1247 248.818Z" fill="#5050EB"/>
<path d="M149.702 76.1114C149.588 76.1114 149.416 76.0541 149.302 75.9395C149.074 75.7103 149.074 75.3665 149.245 75.1374L173.965 47.577C174.194 47.3479 174.536 47.3479 174.765 47.5197C174.993 47.7489 174.993 48.0927 174.822 48.3219L150.101 75.8822C149.987 76.0541 149.816 76.1114 149.702 76.1114Z" fill="white"/>
<path d="M158.323 55.7134C158.209 55.7134 158.037 55.6561 157.923 55.5415C157.695 55.3124 157.695 54.9686 157.866 54.7394L188.295 20.819C188.524 20.5898 188.866 20.5898 189.095 20.7617C189.323 20.9909 189.323 21.3347 189.152 21.5639L158.723 55.4842C158.665 55.6561 158.494 55.7134 158.323 55.7134Z" fill="white"/>
<path d="M105.259 91.1275C105.145 91.1275 104.974 91.0702 104.86 90.9557C104.631 90.7265 104.631 90.3827 104.803 90.1535L129.523 62.5932C129.751 62.364 130.094 62.364 130.322 62.5359C130.551 62.7651 130.551 63.1088 130.379 63.338L105.659 90.8983C105.545 91.0129 105.431 91.1275 105.259 91.1275Z" fill="#5050EB"/>
<path d="M123.814 63.5673C123.7 63.5673 123.529 63.51 123.415 63.3954C123.186 63.1662 123.186 62.8224 123.357 62.5932L136.203 48.5552C136.431 48.326 136.774 48.326 137.002 48.4979C137.23 48.7271 137.23 49.0709 137.059 49.3001L124.214 63.3381C124.1 63.51 123.928 63.5673 123.814 63.5673Z" fill="#5050EB"/>
<path d="M251.198 115.545C251.297 115.474 251.396 115.402 251.567 115.431C253.526 115.233 255.485 115.035 257.466 114.972C257.907 114.958 258.206 115.271 258.272 115.677C258.288 116.118 257.977 116.416 257.572 116.48C255.591 116.543 253.682 116.705 251.758 116.953C251.354 117.017 250.969 116.69 250.939 116.334C250.873 115.929 251 115.687 251.198 115.545ZM262.892 115.003C262.991 114.932 263.176 114.876 263.31 114.854C265.278 114.877 267.267 115.034 269.22 115.142C269.611 115.164 269.946 115.527 269.877 115.953C269.857 116.345 269.496 116.679 269.07 116.607C267.166 116.464 265.213 116.356 263.246 116.334C262.855 116.312 262.555 115.999 262.539 115.558C262.617 115.352 262.743 115.11 262.892 115.003ZM274.642 116.006C274.791 115.899 274.975 115.842 275.146 115.871C277.071 116.149 279.069 116.528 280.98 116.891C281.357 116.998 281.607 117.347 281.538 117.774C281.433 118.151 281.086 118.399 280.66 118.328C278.797 117.929 276.836 117.6 274.96 117.286C274.534 117.215 274.284 116.866 274.353 116.44C274.38 116.269 274.493 116.112 274.642 116.006ZM286.107 118.495C286.306 118.353 286.526 118.346 286.732 118.424C288.616 118.958 290.522 119.628 292.343 120.284C292.72 120.39 292.906 120.86 292.801 121.237C292.696 121.614 292.229 121.799 291.852 121.692C290.031 121.036 288.161 120.416 286.326 119.846C285.949 119.739 285.713 119.305 285.818 118.928C285.895 118.722 285.959 118.601 286.107 118.495ZM297.139 122.577C297.337 122.435 297.607 122.392 297.849 122.52C299.642 123.346 301.421 124.258 303.151 125.205C303.514 125.397 303.615 125.852 303.425 126.215C303.235 126.578 302.781 126.677 302.418 126.485C300.724 125.587 298.944 124.676 297.237 123.864C296.874 123.672 296.723 123.252 296.863 122.925C296.941 122.719 297.04 122.648 297.139 122.577ZM307.432 128.244C307.679 128.067 307.985 128.074 308.262 128.252C309.808 129.256 311.375 130.395 312.857 131.519L313.085 131.733C313.398 131.961 313.45 132.452 313.224 132.764C312.998 133.077 312.508 133.127 312.195 132.899L311.967 132.686C310.485 131.561 308.989 130.521 307.494 129.482C307.18 129.254 307.079 128.799 307.269 128.436C307.283 128.351 307.332 128.315 307.432 128.244ZM316.694 135.405C316.991 135.192 317.382 135.214 317.61 135.427C319.064 136.723 320.491 138.189 321.881 139.605C322.181 139.918 322.147 140.395 321.886 140.658C321.575 140.956 321.099 140.92 320.835 140.657C319.529 139.255 318.089 137.874 316.684 136.543C316.421 136.28 316.369 135.789 316.63 135.526C316.595 135.476 316.644 135.441 316.694 135.405ZM324.804 143.995C325.102 143.782 325.578 143.818 325.792 144.117C326.699 145.277 327.606 146.437 328.427 147.582C328.749 148.031 329.034 148.429 329.356 148.877C329.606 149.226 329.487 149.688 329.19 149.902C328.843 150.15 328.381 150.029 328.166 149.73C327.881 149.332 327.559 148.884 327.273 148.485C326.452 147.339 325.545 146.179 324.674 145.069C324.374 144.756 324.408 144.28 324.804 143.995C324.755 144.031 324.804 143.995 324.804 143.995ZM331.464 153.701L331.514 153.666C331.896 153.467 332.273 153.574 332.523 153.922C333.517 155.623 334.462 157.359 335.308 159.166C335.508 159.551 335.354 159.963 334.971 160.162C334.588 160.361 334.176 160.204 333.975 159.82C333.116 158.098 332.221 156.326 331.262 154.676C331.062 154.291 331.167 153.915 331.464 153.701ZM336.629 164.253C336.678 164.217 336.728 164.182 336.778 164.146C337.146 164.033 337.559 164.189 337.759 164.574C338.47 166.402 339.181 168.231 339.793 170.13C339.908 170.5 339.704 170.948 339.335 171.062C338.966 171.175 338.518 170.969 338.403 170.599C337.827 168.749 337.116 166.921 336.405 165.092C336.276 164.807 336.331 164.466 336.629 164.253ZM340.291 175.43C340.34 175.394 340.439 175.323 340.525 175.337C340.894 175.224 341.292 175.466 341.443 175.885C341.92 177.806 342.397 179.727 342.739 181.669C342.804 182.075 342.565 182.473 342.16 182.537C341.756 182.6 341.357 182.358 341.291 181.953C340.9 180.046 340.508 178.14 339.982 176.254C339.952 175.899 340.043 175.607 340.291 175.43ZM342.491 186.975C342.59 186.904 342.69 186.833 342.824 186.812C343.229 186.748 343.578 187.026 343.644 187.431C343.9 189.359 344.058 191.358 344.216 193.357C344.281 193.762 343.92 194.096 343.516 194.16C343.111 194.224 342.776 193.861 342.71 193.455C342.589 191.506 342.381 189.543 342.125 187.615C342.202 187.409 342.293 187.117 342.491 186.975ZM343.343 198.734C343.443 198.663 343.627 198.606 343.762 198.585C344.153 198.606 344.502 198.884 344.518 199.325C344.554 201.259 344.492 203.265 344.394 205.221C344.374 205.613 344.013 205.947 343.622 205.925C343.232 205.904 342.896 205.541 342.916 205.149C343.014 203.193 343.063 201.273 343.026 199.338C343.032 199.032 343.195 198.84 343.343 198.734ZM342.804 210.434C342.952 210.328 343.137 210.271 343.307 210.3C343.698 210.321 343.984 210.72 343.964 211.111C343.731 213.088 343.498 215.065 343.144 216.979C343.074 217.405 342.728 217.654 342.301 217.583C341.875 217.511 341.625 217.163 341.694 216.736C341.998 214.858 342.317 212.895 342.5 210.953C342.492 210.733 342.605 210.577 342.804 210.434ZM340.8 221.978C340.949 221.871 341.183 221.779 341.389 221.857C341.766 221.964 342.052 222.363 341.947 222.74C341.507 224.638 340.933 226.559 340.408 228.443C340.303 228.82 339.871 229.055 339.494 228.948C339.118 228.841 338.881 228.407 338.986 228.03C339.547 226.195 340.071 224.31 340.511 222.412C340.538 222.241 340.651 222.084 340.8 221.978ZM244.078 294.2C244.177 294.129 244.362 294.072 244.496 294.05C244.851 294.022 245.242 294.044 245.633 294.065C246.023 294.087 246.373 294.364 246.389 294.805C246.369 295.197 246.093 295.545 245.653 295.559C245.263 295.538 244.908 295.566 244.517 295.544C244.126 295.523 243.777 295.245 243.761 294.804C243.803 294.548 243.88 294.342 244.078 294.2ZM251.023 294.047C251.122 293.976 251.257 293.955 251.391 293.933C253.337 293.821 255.246 293.658 257.206 293.46C257.61 293.396 257.995 293.724 258.025 294.079C258.09 294.485 257.765 294.869 257.41 294.897C255.451 295.095 253.492 295.293 251.547 295.406C251.107 295.42 250.807 295.107 250.741 294.701C250.698 294.431 250.824 294.189 251.023 294.047ZM337.275 233.179C337.474 233.037 337.743 232.994 337.95 233.073C338.362 233.229 338.513 233.649 338.359 234.062C337.663 235.918 336.847 237.71 336.031 239.502C335.841 239.864 335.422 240.014 335.059 239.821C334.696 239.629 334.545 239.209 334.736 238.847C335.588 237.104 336.319 235.298 337.049 233.492C337.113 233.371 337.176 233.25 337.275 233.179ZM262.706 292.759C262.805 292.688 262.904 292.617 262.99 292.631C264.927 292.298 266.829 291.915 268.694 291.482C269.099 291.418 269.498 291.66 269.613 292.03C269.679 292.436 269.439 292.834 269.07 292.947C267.155 293.416 265.217 293.749 263.28 294.082C262.875 294.146 262.526 293.868 262.411 293.499C262.332 293.178 262.508 292.901 262.706 292.759ZM332.307 243.831C332.555 243.654 332.86 243.661 333.102 243.789C333.465 243.982 333.566 244.437 333.376 244.799C332.439 246.527 331.416 248.241 330.323 249.855C330.097 250.168 329.643 250.267 329.28 250.075C328.966 249.847 328.865 249.392 329.055 249.029C330.113 247.365 331.122 245.737 332.009 244.045C332.158 243.938 332.257 243.867 332.307 243.831ZM274.135 290.069C274.185 290.034 274.284 289.963 274.369 289.977C276.213 289.409 278.107 288.806 279.879 288.138C280.248 288.024 280.661 288.181 280.812 288.601C280.927 288.971 280.772 289.383 280.354 289.532C278.496 290.186 276.638 290.839 274.759 291.357C274.39 291.471 273.942 291.264 273.876 290.859C273.747 290.574 273.888 290.247 274.135 290.069ZM325.985 253.644C326.233 253.466 326.588 253.438 326.816 253.652C327.13 253.879 327.231 254.335 326.956 254.683C325.826 256.247 324.561 257.833 323.311 259.333C323.085 259.646 322.595 259.695 322.246 259.418C321.933 259.19 321.881 258.699 322.156 258.351C323.407 256.851 324.622 255.301 325.787 253.786C325.837 253.751 325.936 253.68 325.985 253.644ZM285.161 286.085C285.211 286.05 285.26 286.014 285.31 285.979C287.096 285.226 288.811 284.373 290.576 283.485C290.958 283.286 291.371 283.443 291.571 283.827C291.772 284.211 291.617 284.624 291.235 284.822C289.47 285.711 287.67 286.549 285.884 287.302C285.551 287.465 285.053 287.294 284.938 286.924C284.723 286.626 284.864 286.298 285.161 286.085ZM318.446 262.595C318.743 262.382 319.134 262.403 319.398 262.667C319.697 262.98 319.713 263.421 319.402 263.72C318.08 265.12 316.673 266.506 315.18 267.878C314.869 268.177 314.393 268.141 314.179 267.842C313.879 267.529 313.913 267.052 314.21 266.839C315.653 265.503 317.011 264.152 318.333 262.752C318.347 262.666 318.396 262.631 318.446 262.595ZM295.528 280.763L295.578 280.728C297.221 279.776 298.879 278.738 300.5 277.651C300.847 277.402 301.309 277.523 301.524 277.822C301.774 278.171 301.655 278.633 301.357 278.846C299.736 279.933 298.029 281.007 296.336 281.994C295.953 282.193 295.576 282.086 295.326 281.738C295.162 281.403 295.231 280.977 295.528 280.763ZM309.873 270.628C310.17 270.415 310.597 270.486 310.861 270.75C311.16 271.063 311.091 271.489 310.78 271.788C309.265 273.025 307.751 274.262 306.151 275.484C305.804 275.733 305.378 275.662 305.128 275.313C304.878 274.964 304.947 274.538 305.294 274.289C306.844 273.102 308.394 271.915 309.873 270.628Z" fill="white"/>
<path d="M365.703 44.5772C365.703 44.5772 365.642 44.5772 365.703 44.5772C363.934 44.5159 361.861 44.4546 359.848 44.3933C359.421 44.3933 359.117 44.0256 359.117 43.6578C359.117 43.2287 359.482 42.9223 359.848 42.9223C361.922 42.9836 363.934 43.0449 365.703 43.1062C366.13 43.1062 366.435 43.4739 366.435 43.8417C366.374 44.2707 366.069 44.5772 365.703 44.5772ZM353.994 44.0869C353.933 44.0869 353.933 44.0869 353.994 44.0869C351.859 43.9643 349.908 43.7804 348.078 43.5965C347.651 43.5352 347.408 43.1674 347.408 42.7997C347.468 42.3706 347.834 42.1255 348.2 42.1255C350.03 42.3093 351.92 42.4932 353.994 42.6158C354.421 42.6158 354.726 42.9836 354.665 43.4126C354.665 43.7804 354.36 44.0869 353.994 44.0869ZM342.346 42.861C342.285 42.861 342.285 42.861 342.224 42.861C340.211 42.5545 338.26 42.1255 336.43 41.6964C336.064 41.5738 335.82 41.206 335.881 40.8383C336.003 40.4705 336.369 40.2253 336.735 40.2866C338.565 40.7157 340.455 41.0835 342.407 41.3899C342.834 41.4512 343.078 41.819 343.017 42.248C343.017 42.5545 342.712 42.861 342.346 42.861ZM330.942 40.1028C330.881 40.1028 330.82 40.1027 330.698 40.0415C329.356 39.6124 328.014 39.122 326.734 38.5704C326.185 38.3865 325.697 38.1413 325.148 37.8962C324.782 37.7123 324.599 37.2832 324.782 36.9155C324.965 36.5477 325.392 36.3638 325.758 36.5477C326.246 36.7929 326.795 36.9768 327.283 37.2219C328.563 37.7123 329.844 38.2026 331.125 38.6317C331.491 38.7543 331.734 39.1833 331.613 39.5511C331.552 39.9189 331.247 40.1028 330.942 40.1028ZM320.269 35.3218C320.147 35.3218 320.025 35.2605 319.903 35.1992C318.196 34.1572 316.549 33.0539 315.025 31.8281C314.72 31.5829 314.659 31.0925 314.903 30.7861C315.147 30.4796 315.635 30.4183 315.939 30.6635C317.403 31.8281 319.05 32.9314 320.696 33.9121C321.062 34.0959 321.184 34.5863 320.94 34.8928C320.757 35.1992 320.513 35.3218 320.269 35.3218ZM311.061 28.0891C310.878 28.0891 310.695 28.0278 310.512 27.844C309.109 26.3729 307.829 24.8405 306.67 23.2469C306.426 22.9404 306.487 22.4501 306.853 22.2049C307.158 21.9597 307.646 22.021 307.89 22.3888C308.987 23.9211 310.207 25.3922 311.549 26.802C311.854 27.1084 311.854 27.5375 311.549 27.844C311.427 27.9665 311.244 28.0891 311.061 28.0891ZM304.352 18.466C304.108 18.466 303.804 18.2821 303.682 18.0369C302.828 16.1981 302.157 14.298 301.669 12.3979C301.547 12.0301 301.791 11.601 302.218 11.4785C302.584 11.3559 303.011 11.601 303.133 12.0301C303.621 13.8689 304.23 15.6464 305.084 17.424C305.267 17.7917 305.084 18.2208 304.718 18.4047C304.596 18.466 304.474 18.466 304.352 18.466Z" fill="white"/>
</g>
<path d="M349.51 157.203C349.327 157.203 349.083 157.142 348.961 156.958C347.68 155.426 346.522 153.832 345.363 152.239C345.119 151.932 345.241 151.442 345.546 151.197C345.851 150.951 346.339 151.074 346.583 151.38C347.68 152.974 348.839 154.506 350.12 156.039C350.364 156.345 350.364 156.836 349.998 157.081C349.815 157.142 349.632 157.203 349.51 157.203ZM342.801 147.58C342.558 147.58 342.314 147.458 342.192 147.212C341.216 145.496 340.301 143.719 339.447 141.941C339.264 141.573 339.447 141.144 339.813 140.96C340.179 140.777 340.606 140.96 340.789 141.328C341.643 143.044 342.558 144.822 343.472 146.477C343.655 146.845 343.533 147.274 343.228 147.458C343.045 147.519 342.923 147.58 342.801 147.58ZM337.74 136.976C337.435 136.976 337.191 136.792 337.069 136.486C336.459 134.892 335.91 133.299 335.422 131.705C335.3 131.337 335.544 130.908 335.91 130.786C336.276 130.663 336.703 130.908 336.825 131.276C337.313 132.87 337.801 134.402 338.411 135.934C338.533 136.302 338.35 136.731 337.984 136.854C337.923 136.976 337.801 136.976 337.74 136.976Z" fill="white"/>
<path d="M295.08 77.7945C295.08 76.2008 296.239 75.0363 297.824 75.0363H376.921C380.032 75.0363 382.898 77.7945 382.898 80.8592L383.508 141.356C383.508 142.95 382.349 144.115 380.763 144.115H298.983C297.276 144.115 295.69 142.582 295.69 140.866L295.08 77.7945Z" fill="white"/>
<path d="M311.546 135.656L311.485 125.665C311.485 124.868 310.753 124.132 309.96 124.132H304.959C304.289 124.132 303.801 124.623 303.801 125.297L303.862 135.288C303.862 136.085 304.594 136.82 305.386 136.82H310.387C311.058 136.82 311.546 136.33 311.546 135.656Z" fill="#CADDFF"/>
<path d="M324.231 135.656L323.987 118.555C323.987 117.758 323.255 117.084 322.462 117.084H317.461C316.791 117.084 316.303 117.574 316.303 118.248L316.547 135.349C316.547 136.146 317.278 136.82 318.071 136.82H323.072C323.743 136.82 324.231 136.33 324.231 135.656Z" fill="#CADDFF"/>
<path d="M336.915 135.656L336.854 114.632C336.854 113.835 336.122 113.1 335.329 113.1H330.329C329.658 113.1 329.17 113.59 329.17 114.264L329.231 135.288C329.231 136.085 329.963 136.821 330.756 136.821H335.756C336.427 136.821 336.915 136.33 336.915 135.656Z" fill="#CADDFF"/>
<path d="M349.6 135.656L349.173 109.483C349.173 108.687 348.441 108.012 347.649 108.012H342.648C341.977 108.012 341.489 108.503 341.489 109.177L341.855 135.349C341.855 136.146 342.587 136.821 343.38 136.821H348.381C349.112 136.821 349.6 136.33 349.6 135.656Z" fill="#99B9FF"/>
<path d="M362.285 135.656L361.919 115C361.919 114.203 361.188 113.529 360.395 113.529H355.394C354.723 113.529 354.235 114.019 354.235 114.694L354.601 135.288C354.601 136.085 355.333 136.759 356.126 136.759H361.127C361.858 136.821 362.346 136.33 362.285 135.656Z" fill="#CADDFF"/>
<path d="M375.031 135.656L374.726 102.434C374.726 101.638 373.994 100.902 373.201 100.902H368.201C367.53 100.902 367.042 101.392 367.042 102.067L367.286 135.349C367.286 136.146 368.018 136.882 368.811 136.882H373.811C374.543 136.82 375.031 136.33 375.031 135.656Z" fill="#CADDFF"/>
<path d="M295.141 87.1722C294.653 87.1722 294.288 86.8044 294.288 86.3141L294.227 77.7942C294.227 76.8135 294.592 75.8941 295.202 75.2199C295.873 74.5456 296.788 74.1779 297.825 74.1779H327.097C327.585 74.1779 327.951 74.5456 327.951 75.036C327.951 75.5263 327.585 75.8941 327.097 75.8941H297.825C297.276 75.8941 296.788 76.078 296.422 76.4457C296.117 76.8135 295.934 77.2426 295.934 77.7942L295.995 86.3141C295.995 86.8044 295.629 87.1722 295.141 87.1722Z" fill="#5156EA"/>
<path d="M324.414 144.973H298.983C296.788 144.973 294.836 143.073 294.836 140.927L294.409 97.1634C294.409 96.6731 294.775 96.3053 295.263 96.3053C295.751 96.3053 296.117 96.6731 296.117 97.1634L296.544 140.927C296.544 142.153 297.702 143.318 298.983 143.318H324.414C324.901 143.318 325.267 143.686 325.267 144.176C325.267 144.666 324.901 144.973 324.414 144.973Z" fill="#5156EA"/>
<path d="M380.763 144.973H333.378C332.89 144.973 332.524 144.605 332.524 144.115C332.524 143.624 332.89 143.256 333.378 143.256H380.763C381.312 143.256 381.8 143.073 382.166 142.705C382.471 142.337 382.654 141.908 382.654 141.356L382.044 80.8592C381.983 78.2235 379.544 75.8331 376.86 75.8331H338.745C338.257 75.8331 337.891 75.4653 337.891 74.9749C337.891 74.4846 338.257 74.1168 338.745 74.1168H376.921C380.519 74.1168 383.69 77.2428 383.751 80.7979L384.361 141.295C384.361 142.276 383.995 143.195 383.386 143.869C382.715 144.605 381.8 144.973 380.763 144.973Z" fill="#5156EA"/>
<path d="M375.824 94.3438H343.075C342.161 94.3438 341.307 93.547 341.124 92.505C341.002 91.463 341.612 90.6661 342.587 90.6661H375.336C376.251 90.6661 377.105 91.463 377.288 92.505C377.41 93.547 376.739 94.3438 375.824 94.3438Z" fill="#CADDFF"/>
<path d="M359.663 87.0498H343.197C342.283 87.0498 341.429 86.253 341.246 85.211C341.124 84.169 341.734 83.3722 342.71 83.3722H359.175C360.09 83.3722 360.944 84.169 361.127 85.211C361.249 86.253 360.578 87.0498 359.663 87.0498Z" fill="#99B9FF"/>
<path d="M314.839 87.5402V91.3404H314.351V89.9306C314.229 90.0532 314.107 90.1758 313.924 90.2371C313.741 90.2984 313.558 90.3597 313.375 90.3597C313.131 90.3597 312.887 90.2984 312.643 90.1758C312.461 90.0532 312.278 89.8693 312.156 89.6855C312.034 89.5016 311.973 89.1951 311.973 88.9499C311.973 88.6435 312.034 88.3983 312.156 88.2144C312.278 88.0305 312.461 87.8466 312.643 87.724C312.826 87.6015 313.07 87.5402 313.375 87.5402C313.558 87.5402 313.741 87.6015 313.924 87.6627C314.107 87.724 314.229 87.8466 314.351 88.0305V87.6015H314.839V87.5402ZM313.924 89.7467C314.046 89.6855 314.168 89.5629 314.229 89.379C314.29 89.2564 314.351 89.0725 314.351 88.8886C314.351 88.7047 314.29 88.5209 314.229 88.3983C314.168 88.2757 314.046 88.1531 313.924 88.0305C313.802 87.9079 313.619 87.9079 313.436 87.9079C313.253 87.9079 313.131 87.9692 312.948 88.0305C312.765 88.0918 312.704 88.2144 312.643 88.3983C312.522 88.5209 312.522 88.7047 312.522 88.8886C312.522 89.0725 312.583 89.2564 312.643 89.379C312.704 89.5016 312.826 89.6242 312.948 89.7467C313.07 89.808 313.253 89.8693 313.436 89.8693C313.619 89.8693 313.741 89.8693 313.924 89.7467Z" fill="#0F2374"/>
<path d="M316.12 90.1143C315.876 89.9917 315.754 89.8078 315.632 89.6239C315.51 89.44 315.449 89.1949 315.449 88.8884C315.449 88.6432 315.51 88.398 315.632 88.1529C315.754 87.969 315.937 87.7851 316.12 87.6625C316.364 87.5399 316.608 87.4786 316.852 87.4786C317.096 87.4786 317.34 87.5399 317.584 87.6625C317.828 87.7851 317.95 87.969 318.072 88.1529C318.194 88.3368 318.255 88.5819 318.255 88.8884C318.255 89.1336 318.194 89.3788 318.072 89.6239C317.95 89.8078 317.767 89.9917 317.584 90.1143C317.34 90.2369 317.096 90.2982 316.852 90.2982C316.608 90.2982 316.303 90.2369 316.12 90.1143ZM317.34 89.7465C317.462 89.6852 317.584 89.5626 317.645 89.3787C317.706 89.2562 317.767 89.0723 317.767 88.8884C317.767 88.7045 317.706 88.5206 317.645 88.398C317.584 88.2755 317.462 88.1529 317.34 88.0303C317.218 87.9077 317.035 87.9077 316.852 87.9077C316.669 87.9077 316.547 87.969 316.364 88.0303C316.181 88.0916 316.12 88.2142 316.059 88.398C315.998 88.5206 315.937 88.7045 315.937 88.8884C315.937 89.0723 315.998 89.2562 316.059 89.3787C316.12 89.5013 316.242 89.6239 316.364 89.7465C316.486 89.8078 316.669 89.8691 316.852 89.8691C317.035 89.8691 317.157 89.8691 317.34 89.7465Z" fill="#0F2374"/>
<path d="M319.901 89.011L319.352 89.5626V90.2982H318.864V86.6205L319.352 86.4366V88.9497L320.877 87.6012H321.487L320.328 88.7658L321.609 90.3595H320.999L319.901 89.011Z" fill="#0F2374"/>
<path d="M322.463 90.1143C322.219 89.9917 322.097 89.8078 321.975 89.6239C321.853 89.44 321.792 89.1949 321.792 88.8884C321.792 88.6432 321.853 88.398 321.975 88.1529C322.097 87.969 322.28 87.7851 322.463 87.6625C322.707 87.5399 322.951 87.4786 323.195 87.4786C323.439 87.4786 323.683 87.5399 323.926 87.6625C324.17 87.7851 324.292 87.969 324.414 88.1529C324.536 88.3368 324.597 88.5819 324.597 88.8884C324.597 89.1336 324.536 89.3788 324.414 89.6239C324.292 89.8078 324.109 89.9917 323.926 90.1143C323.683 90.2369 323.439 90.2982 323.195 90.2982C322.951 90.2982 322.646 90.2369 322.463 90.1143ZM323.683 89.7465C323.804 89.6852 323.926 89.5626 323.987 89.3787C324.048 89.2562 324.109 89.0723 324.109 88.8884C324.109 88.7045 324.048 88.5206 323.987 88.398C323.926 88.2755 323.804 88.1529 323.683 88.0303C323.561 87.9077 323.378 87.9077 323.195 87.9077C323.012 87.9077 322.89 87.969 322.707 88.0303C322.524 88.0916 322.463 88.2142 322.402 88.398C322.28 88.5206 322.28 88.7045 322.28 88.8884C322.28 89.0723 322.341 89.2562 322.402 89.3787C322.463 89.5013 322.585 89.6239 322.707 89.7465C322.829 89.8078 323.012 89.8691 323.195 89.8691C323.378 89.8691 323.5 89.8691 323.683 89.7465Z" fill="#0F2374"/>
<path d="M325.634 90.1143C325.39 89.9917 325.268 89.8078 325.146 89.6239C325.024 89.44 324.963 89.1949 324.963 88.8884C324.963 88.6432 325.024 88.398 325.146 88.1529C325.268 87.969 325.451 87.7851 325.634 87.6625C325.878 87.5399 326.122 87.4786 326.366 87.4786C326.609 87.4786 326.853 87.5399 327.097 87.6625C327.341 87.7851 327.463 87.969 327.585 88.1529C327.707 88.3368 327.768 88.5819 327.768 88.8884C327.768 89.1336 327.707 89.3788 327.585 89.6239C327.463 89.8078 327.28 89.9917 327.097 90.1143C326.853 90.2369 326.609 90.2982 326.366 90.2982C326.122 90.2982 325.878 90.2369 325.634 90.1143ZM326.853 89.7465C326.975 89.6852 327.097 89.5626 327.158 89.3787C327.219 89.2562 327.28 89.0723 327.28 88.8884C327.28 88.7045 327.219 88.5206 327.158 88.398C327.097 88.2755 326.975 88.1529 326.853 88.0303C326.731 87.9077 326.548 87.9077 326.366 87.9077C326.183 87.9077 326.061 87.969 325.878 88.0303C325.695 88.0916 325.634 88.2142 325.573 88.398C325.512 88.5206 325.451 88.7045 325.451 88.8884C325.451 89.0723 325.512 89.2562 325.573 89.3787C325.634 89.5013 325.756 89.6239 325.878 89.7465C326 89.8078 326.183 89.8691 326.366 89.8691C326.548 89.8691 326.731 89.8691 326.853 89.7465Z" fill="#0F2374"/>
<path d="M330.695 87.8465C330.878 88.0304 331 88.3369 331 88.7659V90.3596H330.512V88.8272C330.512 88.582 330.451 88.3369 330.329 88.2143C330.207 88.0917 330.025 88.0304 329.781 88.0304C329.537 88.0304 329.293 88.0917 329.171 88.2756C328.988 88.4594 328.927 88.6433 328.927 88.9498V90.3596H328.378V87.6013H328.866V88.0304C328.988 87.9078 329.11 87.7852 329.293 87.7239C329.476 87.6626 329.659 87.6013 329.903 87.6013C330.207 87.54 330.451 87.6013 330.695 87.8465Z" fill="#0F2374"/>
<path d="M309.656 89.3786V88.3979L306.058 86.9269L302.398 88.3979V89.3786L306.058 90.7884L309.656 89.3786Z" fill="#0F2374"/>
<path d="M305.081 86.5592L303.069 85.7623C302.703 86.314 302.52 86.9269 302.459 87.6011L305.081 86.5592Z" fill="#5156EA"/>
<path d="M307.033 91.2174L309.046 92.0142C309.412 91.4626 309.595 90.8496 309.656 90.1754L307.033 91.2174Z" fill="#5156EA"/>
<path d="M306.058 86.1302L309.656 87.54C309.595 85.6399 308.009 84.1075 306.119 84.1075H305.997C305.021 84.1075 304.167 84.4753 303.558 85.0882L306.058 86.1302Z" fill="#5156EA"/>
<path d="M306.057 91.5852L302.459 90.1754C302.52 92.0755 304.106 93.6079 305.996 93.6079H306.118C307.094 93.6079 307.948 93.2401 308.557 92.6272L306.057 91.5852Z" fill="#5156EA"/>
<path d="M320.478 393.47H389.5C393.668 393.47 396.751 389.631 395.894 385.563L385.447 334.453C384.59 330.155 380.822 327.061 376.426 327.061H317.224L320.478 393.47Z" fill="#99B9FF"/>
<path d="M389.558 393.871H320.479C320.307 393.871 320.136 393.699 320.136 393.528L316.882 327.119C316.882 327.005 316.939 326.947 316.996 326.833C317.053 326.775 317.167 326.718 317.281 326.718H376.484C380.994 326.718 384.934 329.927 385.847 334.396L396.295 385.506C396.694 387.569 396.18 389.689 394.867 391.293C393.611 392.955 391.613 393.871 389.558 393.871ZM320.878 393.126H389.558C391.442 393.126 393.155 392.267 394.354 390.834C395.552 389.402 396.009 387.511 395.61 385.678L385.162 334.568C384.306 330.443 380.652 327.463 376.484 327.463H317.624L320.878 393.126Z" fill="#1D1D4F"/>
<path d="M311.686 393.47H325.102C329.269 393.47 332.352 389.631 331.496 385.562L319.964 329.296C319.678 328.035 318.593 327.119 317.28 327.119H313.855C312.428 327.119 311.229 328.207 311.115 329.64L306.376 387.682C306.091 390.834 308.546 393.47 311.686 393.47Z" fill="#5156EA"/>
<path d="M325.045 393.872H311.686C310.088 393.872 308.546 393.184 307.519 392.038C306.434 390.892 305.92 389.288 306.034 387.684L310.773 329.641C310.887 328.036 312.257 326.776 313.856 326.776H317.281C318.765 326.776 320.021 327.807 320.307 329.297L331.839 385.563C332.239 387.626 331.725 389.746 330.412 391.351C329.099 392.955 327.158 393.872 325.045 393.872ZM313.798 327.463C312.6 327.463 311.515 328.437 311.458 329.641L306.719 387.684C306.605 389.059 307.062 390.434 308.032 391.465C309.003 392.497 310.259 393.069 311.686 393.069H325.102C326.986 393.069 328.699 392.21 329.898 390.778C331.097 389.345 331.554 387.454 331.154 385.621L319.622 329.354C319.393 328.266 318.423 327.463 317.281 327.463H313.798Z" fill="#1D1D4F"/>
<path d="M325.045 391.866H315.911C315.683 391.866 315.568 391.694 315.568 391.522C315.568 391.293 315.74 391.179 315.911 391.179H325.045C326.301 391.179 327.5 390.606 328.3 389.632C329.099 388.658 329.384 387.397 329.156 386.136L325.388 367.629C325.331 367.457 325.502 367.228 325.673 367.171C325.902 367.113 326.073 367.285 326.13 367.457L329.898 385.965C330.184 387.397 329.841 388.944 328.87 390.09C327.957 391.236 326.53 391.866 325.045 391.866Z" fill="#1D1D4F"/>
<path d="M311.686 391.866C310.658 391.866 309.688 391.465 308.945 390.663C308.26 389.861 307.918 388.887 307.975 387.855L309.06 374.62C309.06 374.39 309.231 374.276 309.459 374.276C309.688 374.276 309.802 374.448 309.802 374.677L308.717 387.913C308.66 388.772 308.945 389.574 309.516 390.205C310.087 390.835 310.886 391.179 311.686 391.179C311.914 391.179 312.028 391.351 312.028 391.522C312.028 391.694 311.857 391.866 311.686 391.866Z" fill="#1D1D4F"/>
<path d="M312.428 338.178C312.371 338.178 312.371 338.178 312.428 338.178C312.199 338.178 312.028 338.006 312.085 337.777L312.314 335.027C312.314 334.798 312.485 334.683 312.713 334.683C312.942 334.683 313.056 334.855 313.056 335.084L312.827 337.834C312.77 338.064 312.599 338.178 312.428 338.178Z" fill="#1D1D4F"/>
<path d="M321.163 345.512C320.991 345.512 320.82 345.398 320.82 345.226L317.68 329.813C317.623 329.641 317.509 329.526 317.28 329.526H313.855C313.684 329.526 313.513 329.698 313.455 329.87L313.284 331.703C313.284 331.933 313.113 332.047 312.885 332.047C312.656 332.047 312.542 331.875 312.542 331.646L312.713 329.813C312.77 329.24 313.227 328.781 313.855 328.781H317.28C317.794 328.781 318.251 329.182 318.365 329.698L321.505 345.111C321.562 345.283 321.391 345.512 321.22 345.569C321.22 345.512 321.163 345.512 321.163 345.512Z" fill="#1D1D4F"/>
<path d="M383.962 354.336H329.898C328.128 354.336 326.586 353.133 326.187 351.357L321.448 331.188C321.391 331.016 321.505 330.787 321.734 330.729C321.905 330.672 322.133 330.787 322.19 331.016L326.929 351.185C327.271 352.617 328.47 353.591 329.955 353.591H384.019C384.248 353.591 384.362 353.763 384.362 353.935C384.362 354.107 384.191 354.336 383.962 354.336Z" fill="#1D1D4F"/>
<path d="M350.793 353.935L352.334 360.066C352.563 361.097 353.476 361.842 354.561 361.842H365.294C366.436 361.842 367.292 360.753 367.007 359.607L365.465 353.935H350.793Z" fill="white"/>
<path d="M365.237 362.186H354.504C353.248 362.186 352.22 361.326 351.935 360.123L350.394 353.992C350.394 353.877 350.394 353.763 350.451 353.648C350.508 353.534 350.622 353.534 350.736 353.534H365.294C365.465 353.534 365.58 353.648 365.637 353.82L367.178 359.493C367.349 360.123 367.235 360.81 366.836 361.383C366.493 361.899 365.922 362.186 365.237 362.186ZM351.25 354.336L352.677 360.008C352.906 360.868 353.648 361.498 354.561 361.498H365.294C365.751 361.498 366.151 361.269 366.379 360.925C366.664 360.581 366.721 360.123 366.607 359.722L365.123 354.336H351.25Z" fill="#1D1D4F"/>
<path d="M385.504 388.715H334.865C334.637 388.715 334.522 388.543 334.522 388.371C334.522 388.142 334.694 388.027 334.865 388.027H385.561C385.79 388.027 385.904 388.199 385.904 388.371C385.904 388.543 385.733 388.715 385.504 388.715Z" fill="#1D1D4F"/>
<path d="M362.839 324.769H367.349C368.548 324.769 369.518 325.743 369.518 326.947H360.669C360.612 325.801 361.583 324.769 362.839 324.769Z" fill="#5156EA"/>
<path d="M369.519 327.349H360.67C360.441 327.349 360.327 327.177 360.327 327.005C360.327 325.573 361.469 324.427 362.896 324.427H367.406C368.834 324.427 369.975 325.573 369.975 327.005C369.861 327.177 369.69 327.349 369.519 327.349ZM361.012 326.604H369.062C368.891 325.745 368.149 325.172 367.292 325.172H362.782C361.926 325.172 361.184 325.802 361.012 326.604Z" fill="#1D1D4F"/>
<path d="M326.872 324.769H331.382C332.581 324.769 333.551 325.743 333.551 326.947H324.702C324.702 325.801 325.673 324.769 326.872 324.769Z" fill="#5156EA"/>
<path d="M333.552 327.349H324.703C324.475 327.349 324.36 327.177 324.36 327.005C324.36 325.573 325.502 324.427 326.929 324.427H331.44C332.867 324.427 334.009 325.573 334.009 327.005C333.952 327.177 333.78 327.349 333.552 327.349ZM325.103 326.604H333.152C332.981 325.745 332.239 325.172 331.382 325.172H326.872C326.016 325.172 325.274 325.802 325.103 326.604Z" fill="#1D1D4F"/>
<path d="M328.071 324.655L327.329 320.358C326.815 317.321 328.87 314.8 331.896 314.8H358.786C361.811 314.8 364.723 317.264 365.237 320.358L365.979 324.655H363.924L363.353 321.332C362.953 318.982 360.727 317.034 358.329 317.034H333.095C330.754 317.034 329.156 318.982 329.555 321.332L330.126 324.655H328.071Z" fill="white"/>
<path d="M365.979 325.057H363.924C363.753 325.057 363.582 324.942 363.582 324.77L363.011 321.447C362.668 319.269 360.556 317.436 358.386 317.436H333.095C332.068 317.436 331.154 317.837 330.583 318.525C329.955 319.269 329.727 320.244 329.898 321.275L330.469 324.598C330.469 324.713 330.469 324.827 330.412 324.885C330.355 324.942 330.241 324.999 330.127 324.999H328.071C327.9 324.999 327.729 324.885 327.729 324.713L326.987 320.415C326.701 318.811 327.101 317.321 328.071 316.175C328.985 315.087 330.412 314.456 331.954 314.456H358.843C362.04 314.456 365.123 317.092 365.637 320.301L366.379 324.598C366.379 324.713 366.379 324.827 366.322 324.885C366.151 324.999 366.094 325.057 365.979 325.057ZM364.21 324.312H365.523L364.895 320.415C364.438 317.551 361.698 315.201 358.843 315.201H331.897C330.526 315.201 329.385 315.717 328.585 316.691C327.786 317.665 327.443 318.926 327.672 320.301L328.357 324.312H329.67L329.156 321.39C328.928 320.129 329.27 318.926 330.013 318.009C330.755 317.149 331.839 316.634 333.095 316.634H358.329C360.841 316.634 363.296 318.696 363.696 321.275L364.21 324.312Z" fill="#1D1D4F"/>
<path d="M333.266 313.081H356.901C357.872 313.081 358.728 313.884 358.9 314.8L359.242 316.863C359.413 317.837 358.785 318.582 357.815 318.582H334.179C333.209 318.582 332.352 317.78 332.181 316.863L331.839 314.8C331.667 313.826 332.295 313.081 333.266 313.081Z" fill="#99B9FF"/>
<path d="M357.815 318.983H334.18C333.038 318.983 332.01 318.067 331.782 316.921L331.44 314.858C331.325 314.285 331.497 313.712 331.839 313.311C332.182 312.91 332.696 312.681 333.266 312.681H356.902C358.044 312.681 359.071 313.597 359.3 314.743L359.642 316.806C359.756 317.379 359.585 317.952 359.243 318.353C358.843 318.754 358.386 318.983 357.815 318.983ZM333.266 313.425C332.924 313.425 332.638 313.54 332.41 313.769C332.182 313.998 332.125 314.342 332.182 314.686L332.524 316.749C332.638 317.551 333.381 318.181 334.18 318.181H357.815C358.158 318.181 358.443 318.067 358.672 317.837C358.9 317.608 358.957 317.264 358.9 316.921L358.557 314.858C358.443 314.056 357.701 313.425 356.902 313.425H333.266Z" fill="#1D1D4F"/>
<path d="M325.16 388.715C325.102 388.715 325.045 388.715 324.988 388.658L315.74 383.386C315.625 383.329 315.568 383.214 315.568 383.042V331.073C315.568 330.844 315.74 330.729 315.911 330.729C316.139 330.729 316.253 330.901 316.253 331.073V382.87L325.331 388.085C325.502 388.199 325.559 388.428 325.445 388.6C325.445 388.658 325.331 388.715 325.16 388.715Z" fill="#99B9FF"/>
<path d="M363.829 411.206C363.544 411.148 363.315 410.919 363.315 410.633C363.315 410.346 363.544 410.06 363.886 410.06C375.875 409.888 387.75 407.882 399.282 404.158C405.049 402.267 410.7 399.975 416.067 397.282C416.352 397.168 416.695 397.282 416.809 397.511C416.923 397.798 416.809 398.142 416.581 398.256C411.157 400.949 405.448 403.298 399.625 405.189C388.036 408.971 375.99 410.976 363.886 411.148C363.886 411.206 363.886 411.206 363.829 411.206Z" fill="#5050EB"/>
<path d="M357.549 416.935C357.264 416.878 357.035 416.649 357.035 416.362C357.035 416.076 357.321 415.789 357.606 415.846C373.363 416.763 389.063 414.758 404.192 409.83C411.1 407.595 417.836 404.731 424.231 401.407C424.516 401.235 424.859 401.35 424.973 401.637C425.144 401.923 425.03 402.267 424.744 402.381C418.293 405.762 411.499 408.627 404.534 410.861C389.291 415.789 373.534 417.852 357.549 416.935Z" fill="#5050EB"/>
<defs>
<clipPath id="clip0_36_2629">
<rect width="361" height="396" fill="white" transform="translate(0.758789 0.328613)"/>
</clipPath>
</defs>
</svg>
